<?xml version="1.0" standalone="no"?>
<!DOCTYPE svg PUBLIC "-//W3C//DTD SVG 20010904//EN"
 "http://www.w3.org/TR/2001/REC-SVG-20010904/DTD/svg10.dtd">
<svg version="1.0" xmlns="http://www.w3.org/2000/svg"
 width="2084.000000pt" height="2084.000000pt" viewBox="0 0 2084.000000 2084.000000"
 preserveAspectRatio="xMidYMid meet">

<g transform="translate(0.000000,2084.000000) scale(0.100000,-0.100000)"
fill="#000000" stroke="none">
<path d="M9440 15417 c0 -4 88 -300 196 -659 107 -359 223 -745 256 -858 34
-113 65 -209 69 -214 7 -8 106 19 122 34 6 6 -625 1685 -639 1699 -2 2 -4 1
-4 -2z"/>
<path d="M11160 14802 c-123 -334 -262 -714 -310 -844 l-88 -237 65 -22 c35
-11 66 -19 68 -18 6 7 496 1721 493 1725 -2 2 -105 -270 -228 -604z"/>
<path d="M10409 14747 c-1 -37 -2 -70 -3 -74 -1 -5 -6 -69 -10 -143 -5 -74
-10 -142 -11 -150 -2 -8 -6 -73 -10 -145 -3 -71 -8 -137 -10 -145 -2 -8 -7
-66 -10 -127 l-7 -113 71 0 72 0 -5 43 c-3 23 -8 85 -11 137 -3 52 -8 118 -10
145 -2 28 -7 88 -10 135 -3 47 -8 112 -10 145 -3 33 -10 125 -16 205 -6 80
-12 147 -15 149 -2 2 -5 -26 -5 -62z"/>
<path d="M11506 13991 c-158 -182 -286 -333 -286 -338 0 -7 58 -52 96 -75 8
-5 69 83 190 275 262 416 294 467 289 467 -2 0 -132 -148 -289 -329z"/>
<path d="M9062 14290 c13 -22 458 -709 465 -719 1 -2 28 15 58 38 51 38 55 45
42 59 -38 45 -543 610 -560 627 l-20 20 15 -25z"/>
<path d="M12518 14017 c-325 -214 -1002 -660 -1091 -718 -5 -4 9 -32 33 -63
l42 -57 36 28 c245 186 1391 1068 1402 1079 8 8 12 14 10 14 -3 0 -197 -127
-432 -283z"/>
<path d="M7910 14276 c0 -5 1357 -1099 1368 -1103 12 -5 85 108 76 116 -5 5
-283 196 -619 426 -335 230 -653 448 -705 485 -112 78 -120 83 -120 76z"/>
<path d="M10379 13537 c-86 -121 -177 -276 -254 -432 -146 -297 -203 -482
-212 -686 -5 -98 -2 -143 11 -202 33 -145 114 -271 225 -346 60 -41 141 -85
146 -79 2 2 -12 47 -30 100 -44 125 -58 201 -57 318 0 111 19 195 67 295 35
72 89 155 103 155 11 0 106 -157 130 -215 65 -159 87 -351 58 -530 -9 -55 -19
-111 -22 -124 l-7 -24 34 19 c64 36 172 155 207 228 52 106 65 186 59 351 -12
300 -93 565 -302 990 -125 252 -115 240 -156 182z"/>
<path d="M12205 13076 c-225 -56 -422 -105 -437 -109 l-27 -7 21 -63 c12 -34
22 -64 24 -65 3 -4 845 336 853 344 10 9 -45 -3 -434 -100z"/>
<path d="M8221 13166 c7 -7 871 -338 873 -334 12 18 36 122 29 128 -7 7 -875
210 -897 210 -5 0 -7 -2 -5 -4z"/>
<path d="M9068 12525 c-2 -1 -106 -6 -233 -9 -126 -4 -259 -9 -295 -11 -36 -2
-148 -7 -250 -10 -177 -5 -305 -10 -545 -20 -60 -2 -189 -7 -285 -11 -96 -3
-177 -8 -179 -10 -2 -2 38 -5 90 -6 52 0 105 -2 119 -3 14 -1 131 -5 260 -9
129 -4 260 -9 290 -11 30 -2 156 -7 280 -11 124 -3 241 -7 260 -9 19 -2 147
-6 283 -10 l248 -8 -3 68 c-2 55 -6 69 -20 71 -9 1 -18 1 -20 -1z"/>
<path d="M11733 12523 c-9 -3 -13 -28 -13 -74 0 -39 3 -68 8 -66 4 3 108 8
232 11 124 4 254 9 290 11 36 2 157 7 270 10 113 4 232 8 265 10 33 2 166 7
295 11 129 4 247 8 263 9 15 1 68 2 119 3 50 1 89 4 87 6 -2 2 -78 7 -169 10
-204 8 -376 14 -545 21 -71 3 -202 7 -290 10 -88 3 -198 8 -245 10 -47 2 -182
7 -300 10 -118 3 -224 8 -235 9 -11 2 -26 2 -32 -1z"/>
<path d="M8772 12214 l3 -126 120 -43 c426 -151 799 -396 998 -657 28 -37 53
-64 55 -59 6 18 -59 175 -103 248 -150 246 -399 459 -735 628 -105 53 -304
135 -326 135 -12 0 -14 -22 -12 -126z"/>
<path d="M11900 12251 c-469 -194 -800 -461 -962 -777 -41 -79 -83 -192 -75
-200 2 -2 22 23 46 55 50 70 202 222 286 287 204 159 506 318 758 400 l87 28
0 128 c0 96 -3 128 -12 127 -7 0 -65 -22 -128 -48z"/>
<path d="M8510 11957 l0 -133 163 -27 c460 -77 881 -218 1125 -378 63 -41 34
6 -60 97 -297 287 -685 481 -1106 554 -63 11 -116 20 -118 20 -2 0 -4 -60 -4
-133z"/>
<path d="M12140 12021 c-345 -73 -635 -202 -895 -399 -67 -51 -246 -222 -276
-264 -16 -22 -9 -20 48 19 228 153 653 297 1103 374 96 16 178 33 183 38 4 4
6 63 5 132 -2 101 -6 124 -18 126 -8 1 -76 -11 -150 -26z"/>
<path d="M10642 11662 c-171 -78 -349 -75 -513 9 -21 10 -43 19 -49 19 -7 0
-9 -469 -8 -1544 l3 -1545 21 -28 c44 -59 169 -103 294 -103 76 0 205 26 245
49 43 25 73 74 80 134 3 29 5 725 3 1548 l-3 1495 -73 -34z"/>
<path d="M8412 10336 l3 -1321 70 -2 c287 -12 701 -88 975 -179 159 -53 369
-150 473 -218 l27 -19 -2 274 -3 274 -123 71 c-144 85 -326 168 -472 217 -116
39 -320 87 -369 87 l-31 0 0 770 c0 424 3 770 6 770 20 0 306 -74 389 -100
199 -64 424 -164 552 -246 l53 -34 -2 292 -3 293 -90 52 c-252 146 -579 255
-910 303 -122 18 -441 41 -518 37 l-27 -1 2 -1320z"/>
<path d="M12265 11648 c-262 -19 -541 -77 -782 -163 -197 -71 -455 -212 -590
-322 l-43 -35 0 -1330 0 -1329 48 39 c219 183 611 337 1086 428 140 27 478 73
536 74 63 1 61 -8 62 276 l0 259 -188 0 c-320 -1 -650 -68 -926 -189 l-38 -16
0 259 0 260 53 19 c302 113 656 181 955 184 123 1 142 3 142 17 3 74 -1 535
-3 538 -5 5 -376 4 -412 -1 -16 -3 -68 -10 -115 -16 -176 -25 -430 -99 -562
-166 -27 -14 -48 -23 -48 -22 -3 203 -1 500 3 505 10 9 268 71 453 108 238 48
386 66 549 69 l140 3 -1 24 c0 13 -1 140 -2 281 l-2 257 -107 -2 c-60 -1 -153
-5 -208 -9z"/>
<path d="M9661 8573 c-18 -9 -49 -31 -67 -49 -29 -26 -34 -38 -34 -76 0 -69
30 -105 130 -155 181 -91 398 -133 721 -140 421 -10 704 35 912 144 37 20 79
50 93 66 23 27 26 38 22 84 -5 60 -29 93 -90 124 -54 28 -68 25 -59 -9 15 -50
-8 -94 -64 -124 -152 -84 -373 -119 -750 -120 -285 -1 -536 39 -682 108 -62
30 -82 55 -91 118 l-7 45 -34 -16z"/>
<path d="M5590 7669 c-118 -20 -245 -104 -312 -209 -72 -112 -93 -297 -50
-436 26 -84 85 -177 141 -222 216 -174 573 -134 712 79 30 46 69 127 69 144 0
3 -58 5 -128 5 l-129 0 -33 -41 c-109 -136 -338 -90 -394 79 -20 60 -22 167
-5 220 34 103 106 161 212 169 54 4 69 1 117 -24 32 -16 63 -41 75 -60 l20
-32 133 -1 133 0 -7 23 c-67 218 -302 348 -554 306z"/>
<path d="M6660 7674 c-47 -9 -145 -47 -184 -72 -111 -70 -197 -207 -215 -342
-6 -41 -8 -88 -6 -105 2 -16 7 -51 10 -77 9 -72 69 -182 134 -247 194 -193
537 -186 719 14 124 137 161 352 92 537 -42 113 -168 231 -290 272 -54 18
-208 30 -260 20z m210 -238 c53 -26 105 -90 121 -149 16 -58 13 -164 -6 -216
-23 -66 -58 -106 -120 -136 -48 -24 -64 -27 -128 -23 -104 5 -159 39 -205 128
-33 62 -34 69 -30 155 3 70 9 101 28 138 60 120 214 166 340 103z"/>
<path d="M11161 7669 c-143 -28 -240 -138 -241 -274 0 -75 17 -122 63 -173 47
-50 108 -81 259 -131 61 -21 109 -43 128 -61 71 -66 9 -159 -97 -147 -51 5
-89 36 -98 78 l-7 29 -124 0 -124 0 0 -32 c0 -50 42 -128 92 -174 95 -88 277
-119 421 -73 126 40 217 155 217 274 0 63 -28 129 -72 172 -51 49 -89 68 -228
118 -156 56 -199 96 -170 164 31 75 164 61 192 -20 l10 -30 127 3 c119 3 126
4 123 23 -18 133 -107 223 -250 254 -61 13 -157 13 -221 0z"/>
<path d="M12933 7665 c-249 -67 -398 -296 -363 -555 32 -240 241 -420 487
-420 344 0 571 306 477 646 -67 245 -346 397 -601 329z m247 -229 c25 -12 59
-41 77 -64 84 -110 73 -304 -23 -397 -52 -51 -109 -69 -198 -63 -87 5 -147 43
-190 118 -29 51 -31 62 -31 155 0 89 3 106 26 150 34 64 80 101 149 118 69 18
132 12 190 -17z"/>
<path d="M7378 7664 c-5 -4 -8 -222 -7 -486 l0 -478 120 0 119 0 0 180 0 180
29 0 c27 0 35 -11 128 -180 l98 -180 133 0 c72 0 132 2 132 4 0 3 -23 44 -51
93 -29 48 -66 113 -84 143 -17 30 -41 71 -53 90 -29 47 -28 54 15 69 53 19
117 84 143 142 33 77 31 181 -4 253 -33 67 -90 118 -165 148 -51 19 -79 22
-301 26 -135 2 -248 1 -252 -4z m473 -232 c24 -26 29 -41 29 -82 0 -41 -5 -56
-29 -82 -29 -32 -30 -32 -135 -36 l-106 -4 0 122 0 122 106 -4 c105 -4 106 -4
135 -36z"/>
<path d="M8276 7663 c-3 -4 -6 -222 -6 -485 l1 -478 119 0 120 0 2 293 3 292
96 -145 c52 -80 139 -211 193 -292 l98 -148 119 0 119 0 0 485 0 485 -120 0
-120 0 0 -297 0 -298 -102 155 c-55 85 -143 219 -194 298 l-93 142 -114 0
c-63 0 -117 -3 -121 -7z"/>
<path d="M9306 7653 c-4 -9 -6 -227 -6 -485 l1 -468 300 0 299 0 0 95 0 95
-180 0 -180 0 0 105 0 105 160 0 160 0 0 90 0 90 -160 0 -161 0 3 97 3 97 157
-3 c86 -1 166 0 178 4 18 6 20 14 20 101 l0 94 -294 0 c-265 0 -294 -2 -300
-17z"/>
<path d="M10060 7663 c0 -5 -1 -223 -2 -486 l-3 -477 118 0 117 0 0 180 0 180
29 0 c26 0 35 -12 127 -180 l99 -180 133 0 c72 0 132 2 132 4 0 2 -47 85 -105
184 -58 100 -105 185 -105 189 0 5 16 15 37 22 97 35 166 145 166 266 1 153
-88 256 -249 290 -73 16 -494 22 -494 8z m471 -231 c23 -26 29 -41 29 -80 0
-90 -48 -122 -185 -122 l-85 0 0 121 0 121 106 -4 c105 -3 106 -3 135 -36z"/>
<path d="M11742 7573 l3 -98 125 0 125 -1 3 -387 2 -387 120 0 120 0 -1 383
-1 382 124 5 123 5 3 98 3 97 -376 0 -376 0 3 -97z"/>
<path d="M13686 7645 c-4 -14 -6 -232 -6 -485 l1 -460 120 0 119 0 0 293 c1
278 2 291 18 270 9 -12 97 -143 196 -292 l179 -271 118 0 119 0 0 485 0 485
-120 0 -120 0 0 -297 0 -297 -131 199 c-73 110 -160 244 -195 298 l-64 97
-114 0 c-113 0 -114 0 -120 -25z"/>
<path d="M14726 7645 c-4 -14 -6 -232 -6 -485 l1 -460 300 0 299 0 0 95 0 95
-180 0 -180 0 0 105 0 105 160 0 160 0 0 90 0 90 -160 0 -161 0 3 97 3 96 162
-1 c89 -1 169 1 178 4 12 5 15 25 15 100 l0 94 -294 0 -294 0 -6 -25z"/>
<path d="M8590 6261 c-168 -51 -232 -247 -130 -396 85 -124 310 -128 394 -7
14 21 26 41 26 45 0 4 -15 7 -34 7 -26 0 -43 -9 -73 -39 -47 -47 -96 -60 -163
-42 -85 23 -130 88 -130 188 1 118 58 184 166 191 70 5 111 -12 146 -58 16
-23 30 -30 55 -30 39 0 40 6 10 51 -53 79 -172 119 -267 90z"/>
<path d="M10170 6261 c-134 -44 -205 -172 -171 -307 29 -115 119 -184 240
-184 149 1 243 98 243 250 0 104 -47 181 -140 229 -29 15 -140 23 -172 12z
m148 -65 c91 -47 129 -172 83 -272 -49 -108 -193 -137 -281 -58 -48 44 -63 88
-58 169 5 74 37 132 89 158 42 20 131 22 167 3z"/>
<path d="M11420 6261 c-168 -51 -232 -247 -130 -396 85 -124 310 -128 394 -7
14 21 26 41 26 45 0 4 -15 7 -34 7 -26 0 -43 -9 -73 -39 -47 -47 -96 -60 -163
-42 -85 23 -130 88 -130 188 1 118 58 184 166 191 70 5 111 -12 146 -58 16
-23 30 -30 55 -30 39 0 40 6 10 51 -53 79 -172 119 -267 90z"/>
<path d="M7100 6015 l0 -245 130 0 130 0 0 25 0 25 -100 0 -100 0 0 85 0 85
90 0 90 0 0 30 0 30 -90 0 -90 0 0 80 0 80 100 0 100 0 0 25 0 25 -130 0 -130
0 0 -245z"/>
<path d="M7460 6015 l0 -245 98 0 c156 0 238 36 284 123 32 59 32 184 1 242
-50 94 -115 124 -270 125 l-113 0 0 -245z m246 176 c51 -23 82 -65 93 -128 16
-81 -9 -160 -63 -205 -28 -22 -93 -38 -160 -38 l-56 0 0 195 0 195 73 0 c48 0
85 -6 113 -19z"/>
<path d="M7952 6078 c3 -162 5 -188 24 -223 30 -58 82 -85 165 -85 75 0 117
21 156 79 22 32 23 43 23 222 l0 189 -30 0 -30 0 0 -177 c0 -159 -2 -181 -20
-210 -36 -60 -142 -69 -191 -17 -23 25 -24 31 -27 215 l-3 189 -36 0 -35 0 4
-182z"/>
<path d="M9130 6257 c0 -2 -38 -108 -85 -236 -47 -128 -85 -237 -85 -243 0 -5
14 -8 31 -6 28 3 34 9 51 56 l19 52 109 0 109 0 17 -55 c17 -52 19 -55 51 -55
18 0 33 2 33 5 0 3 -39 113 -86 245 l-87 240 -38 0 c-22 0 -39 -1 -39 -3z m89
-214 l40 -113 -91 0 c-74 0 -89 3 -85 14 3 8 23 62 43 120 21 58 41 103 45 99
4 -5 26 -59 48 -120z"/>
<path d="M9440 6235 c0 -24 2 -25 65 -25 l65 0 0 -220 0 -220 30 0 30 0 0 220
0 220 70 0 c68 0 70 1 70 25 l0 25 -165 0 -165 0 0 -25z"/>
<path d="M9850 6015 l0 -245 30 0 30 0 0 245 0 245 -30 0 -30 0 0 -245z"/>
<path d="M10580 6015 l0 -245 30 0 30 0 2 191 3 192 128 -192 c118 -177 129
-191 157 -191 l30 0 0 245 0 245 -30 0 -30 0 -2 -191 -3 -192 -128 192 c-118
177 -129 191 -157 191 l-30 0 0 -245z"/>
<path d="M11810 6015 l0 -245 130 0 130 0 0 25 0 25 -100 0 -100 0 0 85 0 85
90 0 90 0 0 30 0 30 -90 0 -90 0 0 80 0 80 100 0 100 0 0 25 0 25 -130 0 -130
0 0 -245z"/>
<path d="M12180 6015 l0 -245 30 0 30 0 2 191 3 192 128 -192 c118 -177 129
-191 157 -191 l30 0 0 245 0 245 -30 0 -30 0 -2 -191 -3 -192 -128 192 c-118
177 -129 191 -157 191 l-30 0 0 -245z"/>
<path d="M12650 6235 c0 -24 2 -25 65 -25 l65 0 0 -220 0 -220 30 0 30 0 0
220 0 220 70 0 c68 0 70 1 70 25 l0 25 -165 0 -165 0 0 -25z"/>
<path d="M13060 6015 l0 -245 30 0 30 0 0 100 0 100 39 0 c39 0 40 0 97 -100
58 -99 59 -100 97 -100 21 0 36 3 34 8 -3 4 -30 49 -61 100 -31 51 -56 94 -56
96 0 2 11 7 24 10 13 3 38 22 55 41 26 30 31 44 31 88 0 111 -53 147 -214 147
l-106 0 0 -245z m231 166 c30 -31 36 -61 19 -106 -13 -34 -64 -55 -135 -55
l-55 0 0 95 0 95 71 0 c65 0 73 -2 100 -29z"/>
<path d="M13490 6015 l0 -245 130 0 130 0 0 25 0 25 -100 0 -100 0 0 85 0 85
90 0 90 0 0 30 0 30 -90 0 -90 0 0 80 0 80 100 0 100 0 0 25 0 25 -130 0 -130
0 0 -245z"/>
</g>
</svg>

